<?xml version="1.0" encoding="utf-8"?>
<!-- Generator: Adobe Illustrator 21.0.1, SVG Export Plug-In . SVG Version: 6.00 Build 0)  -->
<svg version="1.1" id="Capa_1" xmlns="http://www.w3.org/2000/svg" xmlns:xlink="http://www.w3.org/1999/xlink" x="0px" y="0px"
	 viewBox="0 0 1186.3 319" style="enable-background:new 0 0 1186.3 319;" xml:space="preserve">
<style type="text/css">
	.st0{fill:#E5E5E6;stroke:#595959;stroke-width:0.2865;stroke-miterlimit:10;}
	.st1{fill:#0B0000;}
	.st2{fill:#FFFFFF;}
	.st3{font-family:'Neou-Bold';}
	.st4{font-size:19.4807px;}
	.st5{font-size:16.043px;}
	.st6{font-size:17.1889px;}
	.st7{font-size:13.7511px;}
</style>
<rect x="0.1" y="63.8" class="st0" width="207.6" height="63.8"/>
<rect x="0.1" y="127.6" class="st0" width="207.6" height="63.8"/>
<rect x="0.1" y="191.3" class="st0" width="207.6" height="63.8"/>
<rect x="0.1" y="255.1" class="st0" width="207.6" height="63.8"/>
<g>
	<rect x="207.9" class="st1" width="162.9" height="63.8"/>
	<rect x="207.9" y="63.8" class="st0" width="162.9" height="63.8"/>
	<rect x="207.9" y="127.6" class="st0" width="162.9" height="63.8"/>
	<rect x="207.9" y="191.3" class="st0" width="162.9" height="63.8"/>
	<rect x="207.9" y="255.1" class="st0" width="162.9" height="63.8"/>
	<text transform="matrix(1 0 0 1 260.0255 39.2579)" class="st2 st3 st4">LUNES</text>
</g>
<g>
	<rect x="533.6" class="st1" width="162.9" height="63.8"/>
	<rect x="533.6" y="63.8" class="st0" width="162.9" height="63.8"/>
	<rect x="533.6" y="127.6" class="st0" width="162.9" height="63.8"/>
	<rect x="533.6" y="191.3" class="st0" width="162.9" height="63.8"/>
	<rect x="533.6" y="255.1" class="st0" width="162.9" height="63.8"/>
	<text transform="matrix(1 0 0 1 560.5016 39.2579)" class="st2 st3 st4">MIERCOLES</text>
</g>
<g>
	<rect x="860.3" class="st1" width="162.9" height="63.8"/>
	<rect x="860.3" y="63.8" class="st0" width="162.9" height="63.8"/>
	<rect x="860.3" y="127.6" class="st0" width="162.9" height="63.8"/>
	<rect x="860.3" y="191.3" class="st0" width="162.9" height="63.8"/>
	<rect x="860.3" y="255.1" class="st0" width="162.9" height="63.8"/>
	<text transform="matrix(1 0 0 1 901.9953 39.2579)" class="st2 st3 st4">VIERNES</text>
</g>
<text transform="matrix(1 0 0 1 49.8024 110.5591)" class="st1 st3 st5">CLASE NIÑOS</text>
<g>
	<text transform="matrix(1 0 0 1 37.8903 169.8999)" class="st1 st3 st5">CLASE ADULTOS</text>
</g>
<g>
	<rect x="370.8" class="st1" width="162.9" height="63.8"/>
	<rect x="370.8" y="63.8" class="st0" width="162.9" height="63.8"/>
	<rect x="370.8" y="127.6" class="st0" width="162.9" height="63.8"/>
	<rect x="370.8" y="191.3" class="st0" width="162.9" height="63.8"/>
	<rect x="370.8" y="255.1" class="st0" width="162.9" height="63.8"/>
	<text transform="matrix(1 0 0 1 414.2106 39.2579)" class="st2 st3 st4">MARTES</text>
	<text transform="matrix(0.9 0 0 1 389.234 110.5591)" class="st1 st3 st6">17:00 - 18:00 HRS</text>
	<text transform="matrix(0.9 0 0 1 389.234 169.8999)" class="st1 st3 st6">18:00 - 17:00 HRS</text>
	<text transform="matrix(0.9 0 0 1 221.0746 169.8999)" class="st1 st3 st6">21:30 - 22:30 hRS</text>
	<text transform="matrix(0.9 0 0 1 551.0507 169.8999)" class="st1 st3 st6">21:30 - 22:30 hRS</text>
</g>
<g>
	<rect x="697.3" class="st1" width="162.9" height="63.8"/>
	<rect x="697.3" y="63.8" class="st0" width="162.9" height="63.8"/>
	<rect x="697.3" y="127.6" class="st0" width="162.9" height="63.8"/>
	<rect x="697.3" y="191.3" class="st0" width="162.9" height="63.8"/>
	<rect x="697.3" y="255.1" class="st0" width="162.9" height="63.8"/>
	<text transform="matrix(1 0 0 1 744.4074 39.2579)" class="st2 st3 st4">JUEVES</text>
	<text transform="matrix(0.9 0 0 1 715.7687 110.5591)" class="st1 st3 st6">17:00 - 18:00 HRS</text>
	<text transform="matrix(0.9 0 0 1 715.7687 169.8999)" class="st1 st3 st6">18:00 - 17:00 HRS</text>
</g>
<text transform="matrix(1 0 0 1 29.0334 221.085)"><tspan x="0" y="0" class="st1 st3 st7">COMBATE DEPORTIVO</tspan><tspan x="19.3" y="16.5" class="st1 st3 st7">CLASE GENERAL</tspan></text>
<text transform="matrix(1 0 0 1 29.1569 286.0206)"><tspan x="0" y="0" class="st1 st3 st7">POOMSAE DEPORTIVO</tspan><tspan x="19.2" y="16.5" class="st1 st3 st7">CLASE GENERAL</tspan></text>
<g>
	<rect x="1023.2" class="st1" width="162.9" height="63.8"/>
	<rect x="1023.2" y="63.8" class="st0" width="162.9" height="63.8"/>
	<rect x="1023.2" y="127.6" class="st0" width="162.9" height="63.8"/>
	<rect x="1023.2" y="191.3" class="st0" width="162.9" height="63.8"/>
	<rect x="1023.2" y="255.1" class="st0" width="162.9" height="63.8"/>
	<text transform="matrix(1 0 0 1 1064.0929 39.2579)" class="st2 st3 st4">SABADO</text>
	<text transform="matrix(0.9 0 0 1 1043.0089 232.544)" class="st1 st3 st6">12:00 - 13:30 HRS</text>
	<text transform="matrix(0.9 0 0 1 1043.9913 296.7159)" class="st1 st3 st6">13:30 - 14:30 HRS</text>
</g>
</svg>
