<?xml version="1.0" encoding="utf-8"?>
<!-- Generator: Adobe Illustrator 21.0.1, SVG Export Plug-In . SVG Version: 6.00 Build 0)  -->
<svg version="1.1" id="Capa_1" xmlns="http://www.w3.org/2000/svg" xmlns:xlink="http://www.w3.org/1999/xlink" x="0px" y="0px"
	 viewBox="0 0 808.8 989.2" style="enable-background:new 0 0 808.8 989.2;" xml:space="preserve">
<g>
	<path d="M14.5,0C13,0.6,11.5,1.2,10,1.9c-6.5,3.2-9.2,8.9-9.7,15.7C0,21,0.1,24.4,0.1,27.8c0,0.7,0.3,1.7,0.9,2.1
		c2.6,2,3.2,4.7,3,7.7c-0.1,2.4-0.2,4.7-0.5,7.1c-0.1,0.7-0.7,1.4-1.2,1.8c-2.3,1.7-2.9,3.4-1.2,6c1.2,1.7,1.6,4,2.7,5.8
		c0.6,1,1.7,1.7,2.7,2.2c6.7,3.2,14,3.2,21.1,3.6c5.3,0.3,10.7,0.6,16,1.3c6.6,0.9,12,4.2,15.9,9.7c0.4,0.6,1,1.5,1.5,1.4
		c3.5-0.5,5.1,2.3,7.2,4.1c11.6,10.7,23.1,21.4,34.8,32c1.9,1.7,1.8,3.5,1.2,5.3c-1,2.7-2.3,5.2-3.6,7.8C98.2,130,96,134,93.8,138
		c-0.2,0.4-0.4,1-0.8,1.3c-5.3,3.9-8,9.6-11,15.1c-2.7,5-5.8,9.5-11.9,12.4c4.9,6.9,9.2,14,14.4,20.2c11.2,13.2,23.3,25.6,34.2,39
		c8.9,10.9,18.5,20.8,29.8,29c11.6,8.5,23.6,16.6,35.5,24.7c13.5,9.3,26.8,18.8,38.2,30.7c6.9,7.2,12.8,15,17.9,23.6
		c1.1,1.8,2.6,3.3,4.3,4.6c7.5,6,15.2,11.6,22.5,17.8c5.7,4.8,9.9,11,13.1,17.8c0.5,1.1,1.3,2.1,2.2,2.9
		c6.7,5.8,12.3,12.4,16.7,20.1c0.4,0.7,1.4,1.5,2,1.4c2.4-0.4,3.2,1.2,4.1,2.9c1,1.8,2.2,3.8,3.7,5.1c11.6,10.5,18.8,23.8,25.6,37.5
		c5.7,11.3,11.7,22.4,17.9,33.4c1.8,3.3,4.6,6.1,7.1,9c4,4.6,5.8,10.1,5.9,16.1c0,1-0.5,2.3-1.2,2.9c-2,1.6-2.8,3.6-2.5,5.9
		c0.6,4-0.6,7.2-3,10.5c-2.4,3.1-3.7,7.1-5.5,10.6c-8.1,15.8-7.3,32.5-4.9,49.5c1.8,12.3,3.7,24.7,2.8,37.2c-0.1,2.1,0,4.2-0.7,6.1
		c-3.4,9.7-1.4,20.1-3.8,29.8c-2.1,8.6-3.4,17-3.9,25.9c-0.3,6.3-2.9,12.4-4.1,18.6c-0.6,3.1-1,6.4-0.5,9.5
		c1.4,9.6-0.2,18.9-1.6,28.2c-1.8,11.8-4.4,23.5-3.5,35.5c0.3,3.9-0.4,7.9-0.5,11.9c-0.2,9.2-0.1,18.3-0.7,27.5
		c-0.4,6.5-1.9,13-2.7,19.5c-0.1,1.2,0.5,3,1.4,3.9c5.5,5.4,12.5,7.8,19.8,9.4c5.7,1.3,11.5,2,17.2,3.5c8.3,2.1,16.5,4.6,24.8,6.9
		c0.6,0.2,1.2,0.4,1.7,0.7c4.2,2,4.9,3.1,4,7.5c-2.4,12.1,0.3,23.7,2.7,35.4c1.6,7.8,2.7,15.8,3.4,23.7c0.6,6.1-1.4,12-3.9,17.6
		c-0.8,1.9-1.4,4.1-1.5,6.2c0,4.9,0,9.9,0.6,14.8c0.9,7.5,8.2,13.2,15.5,13.2c15.8,0,31.5,0.7,47.3,1.1c0.8,0,1.8,0.1,2.3,0.6
		c4.9,5,11.4,5.7,17.7,7.4c4.3,1.1,8.5,3,12.7,4.5c0.9,0.3,1.9,0.5,2.9,0.6c2.4,0.2,4.9,0.4,7.3,0.6c3.3,0,6.6,0,9.9,0
		c0.1-0.1,0.1-0.2,0.2-0.3c9.6-3.6,8.4-9.9,2.6-15.7c-4.2-4.3-9.8-6-15.5-7.2c-4.7-1-8.4-3.3-11.7-6.4c-4.9-4.5-9.8-8.8-15.8-12
		c-7.2-3.9-13.4-9.5-19.8-14.6c-3.5-2.8-5.5-6.6-6.5-10.9c-0.1-0.5,0-1.1-0.3-1.5c-4-6.3-1.8-12.2,0.9-18.2
		c2.2-4.7,3.6-9.5,1.2-14.7c3-1.9,3.6-4.7,3.6-8c-0.1-3.6-1-7.5,2.8-10.1c0.3-0.2,0.3-1,0.2-1.5c-0.8-12.1,3.6-22.7,8.6-33.4
		c4.1-8.7,8.7-17.4,11.2-26.6c4-14.7,8.4-29.5,9.2-44.9c0.5-10,0.9-20,1.4-29.9c0.4-9.9,0.9-19.8,1.4-29.6c0.1-1,0.6-2.5,1.3-2.8
		c3.4-1.5,4-4.4,4.2-7.6c0.1-2.6,0.7-4.9,3-6.3c4.1,5,8,10,12.2,14.7c0.9,1,3.1,1.8,4.2,1.4c3.4-1.3,6.6-3.1,9.8-4.9
		c0.4-0.2,0.4-1.9,0-2.7c-2-3.9-4-7.9-6.3-11.7c-4.1-6.6-8.4-13-8.6-21.1c0-0.4-0.3-1-0.6-1.3c-3.1-2.8-3.2-6.5-3-10.3
		c0.1-1.3,0.6-2.7,0.4-4c-0.8-4.4,1.7-6.2,5.1-7.8c5.2-2.3,10.4-4.6,15.3-7.2c2.6-1.4,4.9-3.4,7-5.5c2.6-2.5,4-5.5,3.8-9.4
		c-0.2-3.1,0.3-6.4,1.1-9.5c0.5-2.1,1.9-4.1,3.2-5.8c1.3-1.8,3-2.1,5.4-1.1c23.5,9.4,48,13.1,73.2,14.6c24.2,1.4,46.5-4.3,68.1-14.2
		c8.5-3.9,16.6-8.6,24.8-13.1c1.1-0.6,1.7-2.3,2.5-3.4c0.9-1.2,1.8-3,3-3.4c4.4-1.3,7.7-3.5,10.6-7.3c6.6-8.5,14.2-16.3,20.7-24.9
		c7.5-9.9,13-21,17.3-32.6c0.6-1.6,1.9-2.8,2.7-4.4c1.6-3.4,3.4-6.7,4.5-10.3c1.3-4.5,2-9.3,6-12.8c-2.6-1.7-1.5-3.1-0.1-4.9
		c1.1-1.4,1.9-3.3,2.1-5.1c0.8-8.6,1.5-17.2,1.9-25.9c0.3-7-1.7-13.4-4.6-19.8c-3.4-7.7-5.2-16.1-7.9-24.2
		c-1.3-3.9-3.1-7.6-4.9-11.3c-2.2-4.4-3.5-8.8-0.8-13.4c-3.7-4-4-6.9,1.8-10.5c10.1-6.2,20.3-12.3,28.6-21c3-3.2,5.8-6.7,8.2-10.4
		c3-4.6,4.5-9.8,4.5-15.5c0.1-11.2,0.8-22.4,1.1-33.7c0-1.6-0.6-3.5-1.5-4.8c-9.5-13.5-22.9-20.2-38.8-22.8
		c-14.2-2.3-28.3-1.4-42.5,0.5c-1.2,0.2-2.4,0.6-3.5,1.1c-15.5,6.9-27.1,18.1-34.9,33.1c-1.6,3.1-3.3,3.6-6.2,2.2
		c-11.7-6-23.6-11.5-35-18.1c-9.1-5.3-18.7-7.9-29-8.2c-11.7-0.4-23.5-0.1-35.2-0.8c-6.1-0.4-12.1-2.3-18.1-3.5
		c-1.2-0.2-2.6-0.4-3.8-0.1c-7,2.1-14.2,3.1-21.3,2.3c-3.2-0.4-6.4-2.2-9-4.1c-4.3-3.3-8.2-7.2-12.2-10.9c-2.4-2.2-5.1-3.1-8.4-3.1
		c-10.1,0.1-20.1,1-29.8,4.4c-0.8,0.3-2.1,0.2-2.7-0.3c-16.3-11.9-35-19.1-53.1-27.4c-9.7-4.5-19-9.9-28.7-14.4
		c-2.9-1.3-6.6-0.8-9.9-1.1c-0.2,0-0.4,0.1-0.5,0.3c-2.2,4.6-4.3,1.3-6-0.3c-4.3-4.1-6.1-9.5-6.3-15.3c-0.3-6.3-0.1-12.6-0.1-18.8
		c0-7-3.2-10.6-10.3-11.5c-1.4-0.2-2.9-0.2-4.3-0.4c-2.9-0.2-5.3,0.5-8,2.1c-4.3,2.7-9.2,4.4-14,6.2c-5.8,2.2-11.6,4.2-16.2,8.7
		c-1.7,1.7-2.3,3.3-1.8,5.8c3,15.1,12.1,26.1,23.4,35.7c5.7,4.9,11.4,9.7,16.9,14.9c7,6.6,5.4,17.1-3.2,21.3c-1.2,0.6-3.7-0.1-4.9-1
		c-6.9-5.2-11.7-12.3-16.4-19.5c-4.2-6.5-8.1-13.7-15-17.4c-12-6.4-19.6-17.1-28.3-26.6c-20.1-21.9-40.3-43.8-60.3-65.8
		c-1-1.1-1.3-2.8-2-4.2c-0.6-1.1-1.2-2.3-2.1-3.3c-13.5-15.2-29.2-27.8-45.4-39.9c-11.1-8.3-22.4-16.5-33.6-24.7
		c-0.7-0.5-1.4-0.9-2.4-1.6c-2.5,3.3-4.7,6.8-7.5,9.8c-2.7,2.9-5.8,5.4-8.9,7.8c-0.6,0.5-2.6,0.2-3.1-0.4
		C116.1,69.5,105.5,62,95.3,54c-8.6-6.9-16.7-14.3-25-21.6c-0.3-0.3-0.5-0.6-0.9-0.9c-6.3-4.2-12.7-8.3-19-12.5
		c-0.4-0.3-0.9-0.6-1.4-0.7c-5.5-1-8.9-5-12.6-8.8C32.2,5.2,27.1,2.1,21.3,0C19.1,0,16.8,0,14.5,0z"/>
</g>
</svg>
